<svg width="17" height="17" viewBox="0 0 17 17" fill="none" xmlns="http://www.w3.org/2000/svg">
<path d="M13.6719 2.82812L16.0156 0.484375V7.51562H8.98438L12.2188 4.28125C11.0312 3.09375 9.625 2.5 8 2.5C6.34375 2.5 4.92188 3.09375 3.73438 4.28125C2.57812 5.4375 2 6.84375 2 8.5C2 10.1562 2.57812 11.5781 3.73438 12.7656C4.92188 13.9219 6.34375 14.5 8 14.5C9.15625 14.5 10.2812 14.1094 11.375 13.3281C12.5 12.5469 13.2656 11.6094 13.6719 10.5156H15.7344C15.2969 12.2656 14.3594 13.7031 12.9219 14.8281C11.4844 15.9531 9.84375 16.5156 8 16.5156C5.8125 16.5156 3.9375 15.7344 2.375 14.1719C0.8125 12.6094 0.03125 10.7188 0.03125 8.5C0.03125 6.28125 0.8125 4.39062 2.375 2.82812C3.9375 1.26563 5.8125 0.484375 8 0.484375C8.9375 0.484375 9.95312 0.71875 11.0469 1.1875C12.1719 1.625 13.0469 2.17188 13.6719 2.82812Z" fill="#01080E"/>
</svg>
